<?xml version="1.0" encoding="UTF-8"?><svg id="a" xmlns="http://www.w3.org/2000/svg" viewBox="0 0 50 50"><defs><style>.b{fill:#494949;}</style></defs><path class="b" d="M41.39,7.66c-.65.95-1.94,1.2-2.89.56l-3.93-2.66c-1.36-.91-2.96-1.39-4.61-1.39h-7.04v6.25h-12.5v-3.12C10.41,3.27,13.69,0,17.71,0h12.25c2.47,0,4.87.73,6.94,2.1l3.94,2.66c.95.65,1.2,1.94.56,2.89h0ZM43.75,25c2.3,0,4.17-1.86,4.17-4.17s-1.86-4.17-4.17-4.17-4.17,1.86-4.17,4.17,1.86,4.17,4.17,4.17ZM33.33,29.17v10.42c0,5.74-4.67,10.42-10.42,10.42h-12.5c-5.74,0-10.42-4.67-10.42-10.42v-10.42c0-5.92,3.04-11.34,7.76-14.58h17.81c4.72,3.25,7.76,8.67,7.76,14.58h0ZM21.81,29.2l-2-1.96c-1.76-1.72-4.51-1.72-6.28,0l-2.02,1.97c-2.84,2.84-2.84,7.47,0,10.31,1.38,1.38,3.21,2.14,5.16,2.14s3.78-.76,5.16-2.14c2.84-2.84,2.84-7.47-.02-10.33h0ZM16.89,30.22c-.06-.06-.14-.09-.22-.09s-.16.03-.23.09l-2,1.95c-1.2,1.2-1.2,3.18.02,4.4,1.18,1.18,3.24,1.18,4.42,0,1.22-1.22,1.22-3.2,0-4.42l-1.98-1.94h0ZM44.43,35.64c.23-.55.36-1.16.36-1.79,0-2.59-2.1-4.69-4.69-4.69-.96,0-1.86.29-2.6.79v9.62c0,2.21-.51,4.3-1.39,6.18,1.16,2.5,3.67,4.24,6.6,4.24,4.02,0,7.29-3.27,7.29-7.29,0-3.42-2.38-6.28-5.57-7.06Z"/></svg>