<?xml version="1.0" encoding="UTF-8"?><svg id="a" xmlns="http://www.w3.org/2000/svg" viewBox="0 0 50 50"><defs><style>.b{fill:#494949;}</style></defs><path class="b" d="M22.92,22.28c3.45,0,6.25,2.8,6.25,6.25s-2.8,6.25-6.25,6.25h-10.42s2.08-12.5,10.42-12.5ZM32.64,24.87l15.89-16.29c1.96-1.96,1.97-5.15,0-7.11-1.96-1.96-5.14-1.96-7.1,0-.07.07-15.53,17.13-15.53,17.13,3.11.94,5.6,3.26,6.73,6.27h0ZM33.15,30.31c-.85,4.89-5.1,8.63-10.24,8.63H7.58l.81-4.85c.9-5.39,4.44-14.14,12.09-15.71,0,0,8.84-9.75,10.99-12.13H6.25c-3.45,0-6.25,2.8-6.25,6.25v31.25c0,3.45,2.8,6.25,6.25,6.25h31.25c3.45,0,6.25-2.8,6.25-6.25v-24.3l-10.6,10.86h0Z"/></svg>