<?xml version="1.0" encoding="UTF-8"?><svg id="a" xmlns="http://www.w3.org/2000/svg" viewBox="0 0 50 50"><defs><style>.b{fill:#494949;}</style></defs><path class="b" d="M8.36,2.6C8.26,1.14,9.49-.1,10.96,0c9.35.66,13.57,5,14.07,14.58C25.53,5.01,29.74.66,39.09,0c1.46-.1,2.7,1.13,2.59,2.59-.66,9.35-5.01,13.51-14.59,14.02,0,.02.01.04.01.05v4.17c-.01,2.73-4.16,2.72-4.17,0v-4.17s.01-.04.01-.05c-9.58-.5-13.93-4.66-14.59-14.02h0ZM48.87,27.62c-1.09-1.51-2.76-2.45-4.59-2.6-1.82-.16-3.63.51-4.86,1.75l-4.06,3.72c.59,4.82-3.44,9.13-8.26,9.09h-8.33c-2.73-.01-2.72-4.16,0-4.17h8.33c5.48-.1,5.47-8.24,0-8.33h-8.15c-6.12,0-11.88,2.39-16.24,6.75l-2.12,2.23c-.37.39-.57.9-.57,1.43v10.42c0,1.15.93,2.08,2.08,2.08h21.5c5.72,0,11.2-2.12,15.43-5.98l9-8.2c2.23-2.24,2.59-5.76.83-8.21h0Z"/></svg>