<?xml version="1.0" encoding="UTF-8"?><svg id="a" xmlns="http://www.w3.org/2000/svg" viewBox="0 0 50 50"><defs><style>.b{fill:#494949;}</style></defs><path class="b" d="M49.93,15.5v29.74c-.44,2.45-2.22,4.25-4.68,4.68H4.73c-2.45-.44-4.23-2.23-4.68-4.68V15.5h49.87ZM8.21,20.4c-.7.26-1.07.74-1.14,1.49-.15,1.49-.13,4.54,0,6.05.07.84.46,1.43,1.32,1.61,2.09-.19,4.59.25,6.63,0,.91-.11,1.25-.9,1.32-1.71.12-1.55.12-4.21,0-5.76-.06-.81-.41-1.6-1.32-1.71-2.08-.25-4.67.17-6.8.02ZM34.8,20.4c-.77.28-1.07.79-1.14,1.59-.14,1.53-.13,4.31,0,5.85.06.81.41,1.6,1.32,1.71,2.03.24,4.54-.19,6.63,0,.86-.17,1.24-.77,1.32-1.61.13-1.53.13-4.42,0-5.96-.07-.77-.48-1.51-1.32-1.61-2.08-.25-4.67.17-6.8.02ZM28.19,21.28c-.22.02-.53.14-.71.27l-3.52,3.5c-.65-.36-1.12-1.31-1.88-1.51-1.24-.32-2.25.9-1.7,2.09.19.4,2.36,2.55,2.77,2.78.59.32.93.31,1.52-.02l4.92-4.93c.58-1.01-.28-2.28-1.4-2.19ZM8.51,32.89c-.79.11-1.32.59-1.43,1.4-.17,1.25-.15,5.05,0,6.33.1.93.69,1.43,1.6,1.52,1.45.13,4.72.16,6.14,0,1.01-.11,1.43-.74,1.51-1.7.13-1.48.14-4.49,0-5.95-.1-1.01-.6-1.51-1.61-1.61-1.34-.13-4.91-.16-6.21.02ZM21.75,32.89c-.68.1-1.15.55-1.33,1.2.18,2.11-.26,4.66,0,6.72.1.84.84,1.25,1.61,1.32,1.53.13,4.41.13,5.95,0,.84-.07,1.43-.46,1.61-1.32-.19-2.09.24-4.6,0-6.64-.09-.78-.79-1.24-1.51-1.31-1.35-.14-5-.17-6.3.02ZM35.1,32.89c-.87.13-1.32.63-1.43,1.5-.17,1.36-.15,4.75,0,6.13.1.98.6,1.52,1.6,1.61,1.45.13,4.72.16,6.14,0,.93-.1,1.43-.7,1.51-1.61.13-1.45.16-4.73,0-6.15-.11-.95-.69-1.42-1.61-1.51-1.34-.13-4.91-.16-6.21.02Z"/><path class="b" d="M11.26,0c.48.21.98.56,1.07,1.13.29,1.87-.17,4.46,0,6.43.09.98.64,1.72,1.71,1.61.41-.04,1.22-.64,1.22-1.03V3.12h3.6v-2c0-.46.69-.95,1.07-1.12h.68c.58.26,1.07.65,1.16,1.33.27,1.98-.19,4.5,0,6.53.12,1.28,1.73,1.79,2.54.87.08-.09.39-.71.39-.78V3.12h3.51v-1.9c0-.45.76-1.09,1.17-1.22h.68c.56.3.97.54,1.06,1.23.26,1.95-.17,4.42,0,6.43.09,1.01.75,1.66,1.8,1.5.37-.06,1.13-.68,1.13-1.02V3.12h3.6V1.02c0-.33.75-.93,1.07-1.02h.68c.66.3,1.07.67,1.16,1.42.24,2-.19,4.41,0,6.43.12,1.22,1.64,1.81,2.5.89.13-.14.42-.73.42-.89V3.12h1.61c.37,0,1.35.35,1.73.52,1.72.79,2.72,2.35,3.1,4.17v4.78H.06c.13-1.51-.18-3.31,0-4.78.14-1.17.96-2.6,1.85-3.37,2.16-1.86,4.88-1.2,7.5-1.32v-1.8c0-.55.69-1.14,1.17-1.32h.68Z"/><polygon class="b" points="10.14 35.79 13.25 35.79 13.4 35.93 13.4 39.05 13.25 39.2 10.14 39.2 9.99 39.05 9.99 35.93 10.14 35.79"/><polygon class="b" points="36.73 35.79 39.85 35.79 39.99 35.93 39.99 39.05 39.85 39.2 36.73 39.2 36.58 39.05 36.58 35.93 36.73 35.79"/><rect class="b" x="23.34" y="35.79" width="3.31" height="3.41"/><rect class="b" x="9.99" y="23.31" width="3.41" height="3.32"/><rect class="b" x="36.58" y="23.31" width="3.41" height="3.32"/></svg>