<?xml version="1.0" encoding="UTF-8"?><svg id="a" xmlns="http://www.w3.org/2000/svg" viewBox="0 0 50 50"><defs><style>.b{fill:#444b4c;}</style></defs><path class="b" d="M13.1,20.21c-.37,0-.73-.12-1.04-.35-.59-.44-.84-1.21-.61-1.91l1.63-5.24-4.13-3.36c-.56-.47-.76-1.24-.51-1.92.25-.68.9-1.14,1.63-1.14h5.21l1.84-5.17C17.38.45,18.03,0,18.75,0s1.38.45,1.63,1.13l1.84,5.17h5.21c.73,0,1.38.46,1.63,1.14s.05,1.45-.51,1.92l-4.11,3.35,1.7,5.18c.23.7,0,1.47-.59,1.92-.59.45-1.39.48-2.01.08l-4.78-3.11-4.7,3.15c-.29.2-.63.29-.96.29h0ZM48.62,25.72l-16.05,17.52c-3.95,4.31-9.52,6.76-15.36,6.76h-8.88c-4.6,0-8.33-3.73-8.33-8.33v-10.42c0-4.6,3.73-8.33,8.33-8.33h16.22c2.86,0,5.13,2.63,4.51,5.59-.4,1.93-2.09,3.33-4.04,3.61l-8.67,1.21c-1.14.16-1.93,1.22-1.77,2.36.16,1.14,1.22,1.93,2.36,1.77l8.86-1.24c4.3-.61,7.54-4.35,7.54-8.69,0-.46-.07-.89-.14-1.33l7.38-7.79c.95-1.04,2.29-1.67,3.74-1.74,1.44-.07,2.84.44,3.91,1.41,2.19,2,2.37,5.42.39,7.64h0Z"/></svg>