<svg xmlns="http://www.w3.org/2000/svg" width="17" height="17" viewBox="0 0 17 17" fill="none"><path d="M10.8344 4.33634C10.8132 4.25024 10.7923 4.16496 10.7703 4.08214C10.719 3.88917 10.666 3.69647 10.602 3.50897C10.2857 2.58374 9.82592 1.75555 9.23557 1.04762C9.20859 1.01536 9.17752 0.986937 9.14982 0.955231C9.13753 1.21763 9.10213 1.51419 9.0212 1.85176C8.78828 2.82755 8.52574 3.86047 7.81881 5.10823C7.44716 5.76395 6.95508 6.47817 6.27512 7.27684C4.89787 8.89469 4.29572 10.237 4.09436 11.312C3.83928 12.6738 4.22755 13.6061 4.50117 14.1235C4.65484 13.9218 4.81333 13.7092 4.97736 13.4878C5.23099 13.139 5.49618 12.7697 5.76016 12.3805C5.8264 12.2832 5.89336 12.1853 5.96104 12.0867C6.02728 11.9863 6.09303 11.8855 6.15999 11.7846C6.29415 11.5835 6.42446 11.376 6.55717 11.1672C6.69109 10.9583 6.8161 10.7443 6.94761 10.5309C7.07455 10.316 7.20076 10.0987 7.32432 9.88115C7.56832 9.44327 7.80677 9.00211 8.02017 8.55932C8.07389 8.44862 8.12736 8.33928 8.18059 8.22913C8.23069 8.11816 8.28006 8.00883 8.32992 7.89922C8.37761 7.78961 8.43012 7.68137 8.4742 7.57122C8.51924 7.46216 8.5638 7.35392 8.6074 7.24623C8.78274 6.81546 8.92943 6.39371 9.05444 5.99137C9.08864 5.89133 9.11345 5.79183 9.13994 5.69343C9.16644 5.59503 9.19341 5.49828 9.21846 5.4037C9.24665 5.30858 9.26351 5.2151 9.28398 5.12272C9.30397 5.03006 9.323 4.94041 9.34275 4.85157C9.35142 4.80702 9.36202 4.76356 9.36924 4.72037C9.37623 4.67664 9.38225 4.63455 9.389 4.59191C9.40176 4.50717 9.41453 4.4249 9.42705 4.34454C9.45644 4.18273 9.46511 4.0313 9.47739 3.88863C9.51039 3.60163 9.50124 3.35891 9.50581 3.155C9.51039 3.05278 9.49787 2.96668 9.49329 2.8896C9.48775 2.81252 9.48245 2.74719 9.4786 2.69417C9.47185 2.60123 9.468 2.54657 9.46655 2.53481C9.46776 2.54657 9.4745 2.60069 9.4863 2.69143C9.49257 2.74391 9.50076 2.80842 9.50967 2.88413C9.51762 2.95984 9.53424 3.04567 9.53448 3.14708C9.54002 3.34798 9.56073 3.59015 9.54026 3.87742C9.53424 4.02092 9.53231 4.17234 9.50943 4.33552C9.50076 4.41698 9.49184 4.49952 9.48245 4.5848C9.47763 4.62853 9.47306 4.6709 9.46824 4.71463C9.4627 4.75891 9.45379 4.80292 9.44656 4.84802C9.43139 4.93685 9.41573 5.02951 9.40007 5.1219C9.38297 5.21565 9.36948 5.31077 9.34588 5.40726C9.32372 5.50429 9.3018 5.60296 9.27916 5.70218C9.25604 5.80222 9.23557 5.90417 9.20449 6.00695C9.09538 6.41722 8.96435 6.85045 8.80442 7.29242C8.76396 7.40285 8.72301 7.51437 8.68206 7.62725C8.64208 7.73987 8.59319 7.85084 8.54911 7.96373C8.50334 8.07743 8.45734 8.19114 8.41158 8.30484C8.36172 8.41746 8.31162 8.53144 8.26152 8.64542C8.06257 9.1027 7.83856 9.55944 7.60878 10.014C7.49124 10.2395 7.37153 10.465 7.2511 10.688C7.12633 10.9097 7.00711 11.133 6.87921 11.3495C6.753 11.5668 6.62847 11.783 6.49985 11.9929C6.43578 12.099 6.37267 12.2031 6.30957 12.3072C6.2455 12.4103 6.18095 12.5128 6.11784 12.6142C5.86349 13.0204 5.60818 13.4069 5.36322 13.772C5.27892 13.8964 5.1963 14.0158 5.11417 14.135C5.82881 14.0481 6.49214 13.8589 7.09309 13.5648C7.94069 13.1502 8.66544 12.5814 9.24713 11.8748C9.82929 11.1666 10.285 10.3382 10.6015 9.41238C10.918 8.48524 11.0786 7.49688 11.0786 6.47544C11.0786 5.73717 10.9939 5.02186 10.8339 4.33662L10.8344 4.33634Z" fill="#E64F1B"></path></svg>