<?xml version="1.0" encoding="UTF-8"?>
<svg id="a" xmlns="http://www.w3.org/2000/svg" version="1.1" viewBox="0 0 50 50">
  <!-- Generator: Adobe Illustrator 29.6.1, SVG Export Plug-In . SVG Version: 2.1.1 Build 9)  -->
  <defs>
    <style>
      .st0 {
        fill: #494949;
      }
    </style>
  </defs>
  <path class="st0" d="M9.74.03l30.36-.03c5.21.6,9.39,4.82,9.92,10.03v29.81c-.46,5.3-4.75,9.63-10.04,10.15H10.17C4.9,49.53.63,45.31.02,40.08V9.81C.67,4.78,4.69.7,9.74.03ZM40.83,4.96c-3.95.61-3.35,7.23,1.13,6.77,4.41-.45,3.91-7.55-1.13-6.77ZM23.58,8.84c-11.09.87-17.92,12.75-13.34,22.89,5.09,11.25,20.63,12.82,27.9,2.81,8.2-11.3-.71-26.8-14.56-25.71h0Z"/>
  <path class="st0" d="M23.82,15.88c6.63-.7,11.83,5.19,10.03,11.68-1.95,7.02-11.18,8.95-15.87,3.37-4.59-5.45-1.31-14.29,5.84-15.05h0Z"/>
</svg>