<?xml version="1.0" encoding="UTF-8"?><svg id="a" xmlns="http://www.w3.org/2000/svg" viewBox="0 0 50 50"><defs><style>.b{fill:#494949;}</style></defs><path class="b" d="M42.71,34.91h.88c.1-1.7.36-3.62,1.08-5.18,1.35-2.93,2.62-.75,3.17,1.15.81,2.82.92,7.52-1.04,9.9-.8.97-1.82,1.35-3.06,1.05-2.39-.59-2.99-4.17-3.1-6.23l-3.29.26c-.16.19-.13.42-.32.62-.11.12-.29.21-.45.24l-6.46.38c-1.03,2.16-2.76,4.87-5.57,3.81-.49-.19-.91-.5-1.2-.94l-.09-.03-3.34.75c-.81.08-1.4-.09-2.03-.59-.17-.14-.59-.68-.68-.71-.15-.04-.54.07-.8.05-.57-.06-1.07-.41-1.42-.84-.08-.1-.08-.26-.19-.28-.02.64.26,1.34.05,1.97-.08.23-.4,0-.43.04-.23,2.91-1.47,6.03-3.94,7.72-2.99,2.04-6.45,1.06-8.47-1.75-2.64-3.68-2.41-9.52.4-13.04-.24-.14-1.16.2-1.25-.14-.07-.26,1.02-1.41,1.25-1.63,1.35-1.23,3.02-1.83,4.84-1.98.06-.19-.14-.36-.13-.53.01-.14.22-.24.24-.39.02-.12-.07-.23-.04-.35.03-.11.22-.18.23-.27.02-.1-.18-.27-.11-.48.03-.09.17-.12.24-.21.04-.06.2-.5.19-.56,0-.17-.78-.57-.97-.72-.54-.44-1.01-1.09-1.24-1.75-.13-.08-2.03.03-2.41-.01-.27-.03-.54-.17-.63-.44-.09-.24-.06-1.44.05-1.65.08-.16.28-.33.46-.36.41-.06,2.18.08,2.36-.03.58-2.11,2.6-3.47,4.78-2.83,1.13.33,2.22,1.36,2.63,2.47.08.23.1.73.3.77.99.2.55-1.09.41-1.63.67,0,1.38,0,1.99-.3.58-.28.98-.82,1.51-1.13.88-.53,1.86-.4,2.84-.33l.13-1.06c-.65-.03-1.33-.12-1.98-.06-2.09.18-2.16,2.14-4.71,1.89-.63-.06-.63-.34-1.04-.65-1.35-1.03-3.1-1.45-4.73-.84-.16.06-.92.49-.99.42l.31-.75-1.6-1.2c-.69.63-1.71.72-2.35-.04-1.22-1.46.44-3.71,2.09-2.6.68.46.74,1.31.62,2.05l1.65,1.14,4.82-9.64c.58-.93,1.73-1.08,2.73-1.23,2.42-.36,4.97-.38,7.41-.45,1.41-.04,4.67-.34,5.83.26s1.33,1.72,1.3,2.92c-.04,2.07-.33,4.21-.38,6.28-.47,3.11-3.01,2.47-5.31,2.42-.68-.02-1.37.02-2.05,0l-.13,1.01c.31-.05.62.05.91.07.5.02,1.8-.12,2.14.18.33.29.26.99-.16,1.17-1.03.03-2.07-.14-3.1-.21-.18.04-.22.55-.7.56-.14,0-.48-.14-.6-.23-.18-.14-.17-.42-.3-.46-.29-.1-1.23-.1-1.55-.07-.93.11-1.61,1.12-2.36,1.6-.02.15.05.09.14.08,2.05-.18,4.27-.62,5.58,1.37,1.04,1.58,1.55,3.69,2.12,5.49.01.06.14.14.18.14h.91l-1.32-4.15c1.3,0,2.88-.25,4.13.11,1.48.43,1.36,1.78,1.53,2.99.27,1.86.51,3.75.82,5.59.22,1.32.47,3.04,2.05,3.36.34.07,1.61.13,1.52-.44s-.66-.31-1.08-.37c-1.22-.2-1.44-2.2-1.61-3.17-.37-2.14-.48-4.48-.91-6.57-.29-1.42-1.09-2.26-2.54-2.49s-2.89-.13-4.32-.02l-1.24-1.75c.83-.03,1.65.14,2.48,0,.96-.17,1.41-.92,1.59-1.82l4.11-.06c.09-.56-.05-1.73.16-2.2.16-.36,1.65-1.23,1.98-1.61-.88-1.63.47-3.55,2.31-3,2.09.63,1.65,4.25-.89,3.91-.23-.03-.63-.29-.79-.22l-1.6,1.29-.1.28,1.66,14.62c.46,1.47,1.53,1.4,2.83,1.38,1.16-.02,2.35-.15,3.52-.19.41-.02.82.02,1.23,0,.12-1.81.16-3.63.25-5.44.26-5.12.49-10,.31-15.15-.04-1.25-.05-2.49-.12-3.74h-7.86l-.07,2.22c-.33.25-.72.39-1.03.67-.82.74-1.05,1.91-.86,2.97l-.81.67c.01-.7.03-1.41.06-2.11.09-1.79.38-3.76.38-5.53,0-3.44-2.55-3.88-5.38-3.87-3.17.01-6.78.12-9.93.51-1,.13-1.99.29-2.93.68v-1.23c0-.33.53-1.17.79-1.41,1-.95,3.55-1.2,4.91-1.38,2.86-.37,6.1-.68,8.98-.77,2.24-.07,4.03.24,6.21.65,3.79.71,7.74,1.56,11.49,2.46,3.2.77,4,1.19,4.15,4.71.2,4.51-.09,9.36-.19,13.9l-.13,6.1c.56,1.55,1.46,2.86,1.25,4.58-.09.72-.7,1-.87.06-.27-1.48-.32-2.59-.94-4.03-1.34-3.1-3.19-2.31-4.27.4-.64,1.59-.91,3.47-1.02,5.17ZM40.58,7.93c-.09-.32.05-1.23-.23-1.37l-7.25-1.46-.06,2.83h7.54ZM8.95,16.04c4.35.02,8.7-.03,13.05,0,1.37,0,2.78.16,4.15.07,1.08-.07,1.65-.44,1.78-1.55.1-.85.07-1.78.13-2.63.08-1.09.43-3.23.09-4.18-.25-.72-.86-.96-1.57-1.01-1.48-.11-3.05.02-4.53.07-2.19.07-4.49.13-6.67.38-1.12.13-1.94.12-2.56,1.15-1.24,2.07-2.32,4.69-3.42,6.89-.14.28-.3.56-.46.82ZM43.15,16.48h1.92s.43-.11.49-.14c.4-.17.74-.67.79-1.09.23-1.78-.16-4.02,0-5.84-.14-1.75-2.37-1.45-3.62-1.85l.41,8.93ZM8.5,20.02c-2.89.42-2.56,5.73.55,5.52,3.28-.22,2.76-6-.55-5.52ZM9.64,27.3l3.02.04.5-2.61c-.38.21-.6.62-.94.91-.7.61-1.6,1-2.52,1.13l-.06.54ZM16.31,29.44c.14.44,0,1.39.55,1.49,1.35.24,2.6-.35,3.6-1.21l-1.36-.97c-.23.18-.4.43-.67.58-.66.36-1.42.39-2.12.11ZM11.91,31.26c.03-.17-.14-.31-.13-.47.01-.14.19-.19.19-.31,0-.12-.15-.23-.12-.37.03-.11.23-.17.25-.33.02-.2-.27-.39,0-.63l-.06-.06c-.89-.15-1.8-.17-2.71-.16-.03.03.14.41.13.53-.02.18-.33.26-.19.38.27.22,1.1.3,1.43.59l1.21.83ZM14.36,35.16c.09-.74.6-1.28,1.01-1.86-.2-1.02-.35-2.05-.58-3.06-.03-.14-.2-.92-.27-.93-.28-.06-.06.53-.1.65-.03.09-.2.1-.22.22.35.45-.05.48-.08.61-.05.17.2.45-.19.63l.11.42-.35.39c.41.47-.18.57-.2,1.01-.01.18.49.96.6,1.22.09.23.08.55.28.69ZM21.08,30.68l-.15-.43c-1.2,1-2.58,1.66-4.18,1.32l.11.44c1.6.29,3.02-.33,4.22-1.33ZM45.59,31.15c-.68.15-1.08,2-1.17,2.61-.18,1.28-.23,4.13.59,5.17.38.48.84.57,1.25.06.99-1.23.99-4.3.7-5.78-.12-.6-.53-2.25-1.37-2.06ZM18.6,32.71c-.45.05-1.04,0-1.51,0-.01,0-.07-.09-.09-.06-.15.5.41.53.79.56.81.06,1.75-.22,2.45-.61.21-.12,1.02-.65,1.15-.8.13-.16.04-.34-.09-.47-.82.54-1.69,1.27-2.7,1.38ZM18.44,34.22c.66.04,1.34-.13,1.93-.43.24-.12,1.17-.7,1.21-.93.02-.09.02-.36-.12-.31-.92.65-1.86,1.24-3.02,1.36v.31ZM12.9,33.91c-.39-.25-.74-.65-1.24-.64l-1.69,7.14c-.06.3.07.55.37.62.47.12.77-.33.93-.71.75-1.83.93-4.28,1.62-6.18l.02-.24ZM25.11,35.03c.15-1.43-.87-1.79-2.11-1.64-.73.09-.69.84-.95,1.01-.14.09-.38.03-.54.07-1.48.35-1.57,4.13.17,4.32.31.03,1.62-.02,1.83-.19.06-.05.17-.21.15-.28-.87-.5-1.05-1.25-.94-2.21.13-1.13,1.44-1.88,2.39-1.1ZM9.77,37.74l.68-3.22c-1.06-1.16-2.67-1.09-3.88-.2-3.2,2.35-3.38,9.95.45,11.73,3.6,1.67,5.78-3.43,5.64-6.27l-.13-1.79c-.19-.03-.1.05-.13.15-.19.69-.54,2.3-.89,2.82-.41.61-.93.46-1.15.67-.08.08-.22.43-.32.56-.94,1.28-2.39,1.13-3.12-.27-.56-1.06-.51-2.85.21-3.84.48-.65,1.18-1.04,1.98-.75.27.1.4.29.65.39ZM19.89,37.61c-.1-.76-.13-1.55.14-2.28.09-.26.27-.48.36-.74-.61.28-1.28.34-1.95.31.05,1.03.43,2.27,1.45,2.7ZM15.74,34.78c-.16-.03-.1.03-.13.09-.71,1.18-.61,3.06.95,3.37-.45-1.1-.67-2.28-.82-3.46ZM23.75,35.62c-.62.5-.54,1.99.33,2.11,1.21.18,1.5-1.87.48-2.24-.27-.1-.58-.06-.81.13Z"/><path class="b" d="M36.4,24.91c-.34-.67-.66-1.23-1.33-1.62-.77-.45-1.58-.5-2.44-.64l-.53-4.06c-.15-.5.63-.99,1.04-1.04.34-.04.71.03,1.06,0,.46-.05.9-.27,1.39-.31,1.49-.11,3.12.09,4.62,0l-.25,7.67h-3.55Z"/><path class="b" d="M39.88,25.98l-.31,6.85c-.78.04-1.58.03-2.36.06-.59.02-1.17.05-1.76.06-.48,0-1.12.23-1.54-.15-.48-.44-.33-2.24-.55-2.9.01-.05.79-.29.94-.36,1.15-.52,1.92-1.67,2.12-2.91.03-.22-.07-.5.1-.65h3.36Z"/><path class="b" d="M33.28,28.81l-.5-5.03c1.01.05,2.04.24,2.46,1.28.6,1.47-.38,3.47-1.96,3.75Z"/><path class="b" d="M45.59,33.47c.38-.07.61.44.69.73.14.53.13,1.68-.03,2.2-.3,1-.99.92-1.25-.05-.16-.59-.22-2.74.58-2.89Z"/></svg>