<?xml version="1.0" encoding="UTF-8"?><svg id="a" xmlns="http://www.w3.org/2000/svg" viewBox="0 0 50 50"><defs><style>.b{fill:#494949;}</style></defs><path class="b" d="M8.02,8.42l33.67-.04c.97.07,1.73.33,2.33,1.13,2.26,8.37,3.91,16.96,5.95,25.41.21,1.74-1.01,2.89-2.7,2.93H15.02c-1.32-.1-2.26-.59-2.68-1.9L6.5,10.22c-.15-.97.56-1.76,1.52-1.8ZM25.68,25.13c0-.1-.04-.2-.11-.27-.78-.88-1.94-2.79-2.74-3.41-1.38-1.08-3.23.43-2.4,2.07.32.64,3.29,4.43,3.85,4.97.67.64,1.53.7,2.28.16,2.8-2.62,6.56-4.83,9.27-7.47,1.64-1.6-.11-3.68-1.87-2.65l-8.29,6.61Z"/><path class="b" d="M9.61,37.85H2.52c-.09,0-.78-.15-.92-.2-.98-.31-1.72-1.5-1.59-2.53L4.42,15.75l5.19,22.1Z"/></svg>