<?xml version="1.0" encoding="UTF-8"?><svg id="a" xmlns="http://www.w3.org/2000/svg" viewBox="0 0 50 50"><defs><style>.b{fill:#494949;}</style></defs><path class="b" d="M50.02,47.83c0,1.15-.93,2.09-2.09,2.09H2.06c-1.15,0-2.09-.93-2.09-2.09s.93-2.09,2.09-2.09h45.87c1.15,0,2.09.93,2.09,2.09ZM4.15,41.58h41.7c1.15,0,2.09-.93,2.09-2.09v-2.09c-.02-11.85-9.05-21.74-20.85-22.83v-2.77c1.99-1.15,2.68-3.7,1.53-5.7-1.15-1.99-3.7-2.68-5.7-1.53-1.99,1.15-2.68,3.7-1.53,5.7.37.63.89,1.16,1.53,1.53v2.77C11.11,15.67,2.08,25.56,2.06,37.41v2.09c0,1.15.93,2.09,2.09,2.09Z"/></svg>